<svg xmlns="http://www.w3.org/2000/svg" viewBox="0 0 362 375"><path d="m0 341 119-56-2-11 19-21 17-2c-12-15-49-61-65-72C159 5 117 70 306 58l4 148-15 41-42 25 2 13 24 12v11l63 27 16 40H0" style="fill:#fff"/><path d="M352 349c-14-27-45-33-71-43-6 11 48 15 62 46l10 23h9c-3-9-5-18-10-26ZM225 368c-4-6-10-9-14-13-7-18 15-31-9-49-17-11-33-21-47-34 19-16-2-32-15-43a74 74 0 0 1-14-18c0-4-4-6-7-9 9-13-14-2-17-11-8-9-4-22-1-32 1-14 16-12 23-3 3 3 10 13 13 5 1-23 2-47 12-68 15-4 32-6 47-12-21 28 37 7 48 2 16-5 34 0 50-8a25 25 0 0 0 9 8l2 43c0 36 9 76-9 109a66 66 0 0 1-76 28c-40-11-3 22 31 15 0 10 1 22 6 31-5 9-9 20-17 28-8 6-21 18-16 29 7 2 6-11 10-14 12-12 22-25 27-42 3-1 3-5 2-8 0-1 0-2-1-1a132 132 0 0 1-5-16l-1-8c79-18 59-113 55-174 14-3 9-28 0-35 7-7 14-28 0-30 2-5 0-11-6-10 9-13-21-9-28-14-9-2-18-7-26-9-40-15-100 6-132 31-7-4-19-1-15 8-6 3-9 10-3 14-16 26-28 68-7 94-9 18-11 49 14 54-7 4-5 17 5 12 2 4 8 5 11 2 6 13 19 20 27 32-6-1-12-1-17 2-4 0-29 33-16 29l1 2c-35 18-76 25-109 48-11 7-10 9-10 21 31-37 85-38 121-66 9 12 19 25 26 39 6 7 16 48 28 38 7-16 21-29 31-44 3 15-11 33 6 43a60 60 0 0 1 11 11h8a57 57 0 0 0-6-7Zm-71-112-3 12-12-12c4-1 12-4 15 0Zm43 71c-10 11-19 20-26 33-14-19-19-43-35-60l-17-18c6-8 9-19 17-25 6 9 14 19 23 27 13 14 34 20 46 35l-8 8Z"/><path d="M258 287c16 10 18 10 15 30-7 10-20 20-19 34-5-5-11-10-16 0-1 2-7 9-5 9 3-3 7-8 11-10l3 3c23 22 8-5 18-16 3-5 9-9 11-15 6 1 4-11 5-15 2-14-13-19-24-22l1 2ZM116 166c-3-1-13-6-12 1a8 8 0 0 0 3 2c-7 5 3 14 7 7 13 17 21-3 2-10ZM289 146c-9-9-27 10-15 12 2-4 6-9 11-5 3 1 2 6 5 7 9 1 4-11-1-14ZM188 143l2-1a34 34 0 0 1 26-17c11 1 12-12 1-13-13 1-34 16-29 31ZM220 146c-20-11-28 31-18 21 0-5 5-12 9-13 9-4 8 12 16 9 8-4-3-13-7-17ZM273 124c24 2 19 18 24 17 8-16-15-33-30-30-7 5 0 13 6 13Z"/></svg>