<svg xmlns="http://www.w3.org/2000/svg" viewBox="0 0 424 424"><path style="fill:#bec0c2" d="M0 0h424v424H0z"/><path d="m0 390 119-56-2-11 19-21 17-2c-12-15-49-61-65-72 71-174 29-109 218-121l4 148-15 41-42 25 2 12 24 13v11l63 27 16 40H0" style="fill:#fff"/><path d="M352 398c-14-27-45-33-71-43-6 11 48 15 62 46l10 23h9c-3-9-5-18-10-26ZM225 416l-14-13c-7-17 15-31-9-48-17-11-33-21-47-34 19-16-2-32-15-43a74 74 0 0 1-14-18c0-5-4-6-7-9 9-13-14-3-17-11-8-9-4-22-1-32 1-14 16-12 23-3 3 3 10 13 13 4 1-22 2-46 12-67 15-4 32-6 47-13-21 29 37 8 48 3 16-5 34 0 50-8a25 25 0 0 0 9 8l2 43c0 36 9 76-9 109a66 66 0 0 1-76 28c-40-11-3 22 30 15 1 10 2 22 7 31-5 9-9 20-17 28-8 6-21 18-16 29 7 2 6-11 10-14 12-12 22-25 27-42 3-1 3-5 2-8l-1-2a133 133 0 0 1-5-16l-2-7c79-18 60-113 56-174 14-3 9-28 0-36 7-6 14-27 0-29 2-5 0-12-7-10 10-13-20-9-27-14-9-2-18-7-26-9-40-15-100 6-132 31-7-4-19-1-15 8-6 3-9 10-3 14-16 26-28 68-7 94-9 18-11 49 14 53-7 5-5 18 5 13 2 4 8 5 11 2 6 13 19 20 27 32-6-1-12-1-17 2-4 0-29 32-16 29l1 2c-35 18-76 25-109 48-11 7-10 9-10 21 31-37 85-38 121-66 9 12 19 25 26 39 6 7 16 47 28 38 7-16 21-29 31-44 3 15-11 33 6 43a60 60 0 0 1 11 11h8a58 58 0 0 0-6-8Zm-71-111-3 12-12-12c4-1 12-4 15 0Zm43 71c-10 10-19 20-26 33-14-19-19-43-35-60l-17-18c6-8 9-19 17-25 6 9 14 19 23 27 13 14 34 20 46 35l-8 8Z"/><path d="M258 336c16 10 18 10 15 29-7 11-20 21-19 35-5-5-11-10-16 0-1 2-7 9-5 9 3-3 7-8 11-10l3 2c23 22 8-4 18-15 3-5 9-9 11-15 6 0 4-11 5-15 2-14-13-19-24-22l1 2ZM116 215c-3-1-13-6-12 0a8 8 0 0 0 3 3c-7 5 3 14 7 7 13 17 21-3 2-10ZM289 195c-9-9-27 9-15 12 2-4 6-9 11-5 3 1 2 6 5 7 9 0 4-11-1-14ZM188 192l2-1a34 34 0 0 1 26-17c11 1 12-12 1-13-13 1-34 16-29 31ZM220 195c-20-11-28 31-18 21 0-5 5-12 9-14 9-4 8 13 16 10 8-4-3-14-7-17ZM273 173c24 2 19 18 24 17 8-16-15-33-30-30-7 5 0 13 6 13Z"/></svg>